<?xml version="1.0" encoding="utf-8"?>
<!-- Generator: Adobe Illustrator 24.3.0, SVG Export Plug-In . SVG Version: 6.00 Build 0)  -->
<svg version="1.1" id="Layer_1" xmlns="http://www.w3.org/2000/svg" xmlns:xlink="http://www.w3.org/1999/xlink" x="0px" y="0px"
	 viewBox="0 0 250 100" style="enable-background:new 0 0 250 100;" xml:space="preserve">
<style type="text/css">
	.st0{fill:none;stroke:#FFFFFF;stroke-width:1.9559;stroke-miterlimit:10;}
	.st1{fill-rule:evenodd;clip-rule:evenodd;fill:#F58120;}
	.st2{fill-rule:evenodd;clip-rule:evenodd;fill:#58585A;}
	.st3{fill-rule:evenodd;clip-rule:evenodd;fill:#B2B4B5;}
	.st4{fill:#58585A;}
</style>
<g>
	<polygon class="st0" points="31.09,17.68 43.37,24.77 31.09,31.86 18.81,24.77 	"/>
	<polygon class="st1" points="31.09,17.68 43.37,24.77 31.09,31.86 18.81,24.77 	"/>
	<polygon class="st0" points="17.47,40.88 17.47,26.7 29.76,33.79 29.76,47.96 	"/>
	<polygon class="st2" points="17.47,40.88 17.47,26.7 29.76,33.79 29.76,47.96 	"/>
	<polygon class="st0" points="44.69,40.93 44.69,26.74 32.41,33.83 32.41,48.02 	"/>
	<polygon class="st3" points="44.69,40.93 44.69,26.74 32.41,33.83 32.41,48.02 	"/>
	<polygon class="st0" points="16.05,42.61 28.34,49.7 16.05,56.79 3.77,49.7 	"/>
	<polygon class="st1" points="16.05,42.61 28.34,49.7 16.05,56.79 3.77,49.7 	"/>
	<polygon class="st0" points="2.44,65.81 2.42,51.63 14.72,58.72 14.72,72.91 	"/>
	<polygon class="st2" points="2.44,65.81 2.42,51.63 14.72,58.72 14.72,72.91 	"/>
	<polygon class="st0" points="29.65,65.86 29.65,51.68 17.37,58.78 17.37,72.95 	"/>
	<polygon class="st3" points="29.65,65.86 29.65,51.68 17.37,58.78 17.37,72.95 	"/>
	<polygon class="st0" points="45.93,43 58.23,50.1 45.93,57.19 33.65,50.1 	"/>
	<polygon class="st1" points="45.93,43 58.23,50.1 45.93,57.19 33.65,50.1 	"/>
	<polygon class="st0" points="32.31,66.21 32.31,52.04 44.59,59.12 44.6,73.3 	"/>
	<polygon class="st2" points="32.31,66.21 32.31,52.04 44.59,59.12 44.6,73.3 	"/>
	<polygon class="st0" points="59.53,66.25 59.53,52.08 47.26,59.16 47.26,73.35 	"/>
	<polygon class="st3" points="59.53,66.25 59.53,52.08 47.26,59.16 47.26,73.35 	"/>
	<polygon class="st0" points="47.35,41.08 47.35,26.89 59.63,33.99 59.64,48.16 	"/>
	<polygon class="st2" points="47.35,41.08 47.35,26.89 59.63,33.99 59.64,48.16 	"/>
	<polygon class="st0" points="15.01,41.12 15.01,26.94 2.73,34.03 2.73,48.22 	"/>
	<polygon class="st3" points="15.01,41.12 15.01,26.94 2.73,34.03 2.73,48.22 	"/>
	<polygon class="st0" points="31.09,68.13 43.37,75.23 31.09,82.32 18.81,75.23 	"/>
	<polygon class="st1" points="31.09,68.13 43.37,75.23 31.09,82.32 18.81,75.23 	"/>
	<path class="st4" d="M67.52,64.34V35.03h6.11v11.14h11.53V35.03h6.1v29.31h-6.1V51.25H73.63v13.09H67.52z M98.35,55.23
		c0.04,1.63,0.51,2.9,1.41,3.82c0.91,0.93,2.07,1.39,3.5,1.39c0.99,0,1.8-0.21,2.47-0.68c0.67-0.44,1.13-1.07,1.39-1.87h5.85
		c-0.28,1.43-0.81,2.64-1.59,3.67c-0.77,1.03-1.92,1.86-3.46,2.5c-1.55,0.64-3.18,0.96-4.92,0.96c-2.02,0-3.79-0.43-5.33-1.27
		c-1.53-0.83-2.75-2.15-3.66-3.96c-0.89-1.82-1.35-3.94-1.35-6.38c0-3.08,0.77-5.67,2.28-7.78c1.74-2.43,4.39-3.64,7.95-3.64
		c1.52,0,2.88,0.2,4.11,0.6c1.21,0.4,2.27,1.01,3.15,1.86c0.89,0.83,1.56,1.82,2.03,2.95c0.47,1.13,0.77,2.39,0.92,3.8
		c0.09,0.93,0.13,2.28,0.12,4.04H98.35z M107.37,51.47c-0.09-1.52-0.4-2.64-0.91-3.38c-0.72-1.04-1.83-1.56-3.32-1.56
		c-1.04,0-1.9,0.23-2.59,0.68c-0.68,0.45-1.2,1.11-1.57,1.96c-0.25,0.57-0.41,1.35-0.51,2.3H107.37z M117.25,53.28l-7.07-10.66h6.95
		l3.55,6.34l3.63-6.34h6.74l-7.13,10.66l7.41,11.06h-7.06l-3.59-6.54l-3.94,6.54h-6.89L117.25,53.28z M135.94,49.53h-5.62
		c0.12-2.22,1-4.03,2.62-5.45c1.62-1.4,4.08-2.11,7.41-2.11c1.43,0,2.74,0.15,3.91,0.45c1.16,0.29,2.03,0.68,2.6,1.16
		c0.57,0.47,1.01,1.07,1.32,1.8c0.43,0.95,0.64,2.14,0.64,3.56l-0.03,11.1c0,1.29,0.12,2.15,0.33,2.55
		c0.24,0.43,0.56,0.71,0.99,0.84v0.89h-6.25c-0.35-0.83-0.52-1.67-0.53-2.54c-1.16,1.21-2.23,2.04-3.23,2.51
		c-1,0.45-2.19,0.69-3.56,0.69c-1.43,0-2.67-0.28-3.71-0.83c-1.05-0.55-1.84-1.33-2.36-2.38c-0.52-1.03-0.77-2.15-0.77-3.34
		c0-1.82,0.48-3.34,1.43-4.55c0.95-1.23,2.7-2.03,5.25-2.42l4.79-0.72c0.77-0.11,1.31-0.31,1.59-0.59c0.28-0.28,0.43-0.67,0.43-1.16
		c0-0.79-0.27-1.4-0.79-1.84c-0.52-0.43-1.4-0.65-2.64-0.65c-1.28,0-2.18,0.23-2.72,0.65C136.49,47.63,136.12,48.42,135.94,49.53
		L135.94,49.53z M143.18,53.73c-0.49,0.27-0.97,0.45-1.43,0.61c-0.45,0.15-1.07,0.31-1.84,0.47c-1.47,0.28-2.38,0.49-2.75,0.64
		c-0.61,0.25-1.08,0.6-1.37,1.04c-0.31,0.43-0.47,0.97-0.47,1.61c0,0.85,0.27,1.55,0.8,2.1c0.53,0.52,1.23,0.79,2.07,0.79
		c1.25,0,2.4-0.4,3.43-1.21c1.04-0.81,1.56-2.1,1.56-3.84V53.73z M151.27,72.75V42.61h5.42v3.11h0.08c0.47-0.84,0.95-1.51,1.47-2.03
		c0.49-0.51,1.15-0.92,1.95-1.24c0.79-0.32,1.74-0.48,2.83-0.48c1.65,0,3.08,0.32,4.27,0.96c1.19,0.63,2.12,1.39,2.78,2.26
		c0.65,0.87,1.2,1.99,1.63,3.36c0.43,1.39,0.63,2.95,0.63,4.71c0,2.14-0.33,4.15-1,6.02c-0.67,1.9-1.72,3.31-3.18,4.27
		c-1.45,0.96-3.16,1.45-5.15,1.45c-1.44,0-2.63-0.28-3.55-0.84c-0.93-0.55-1.74-1.39-2.43-2.52h-0.08v11.1H151.27z M161.6,46.8
		c-1.61,0-2.83,0.64-3.64,1.91c-0.81,1.28-1.23,2.87-1.23,4.78c0,2.27,0.45,3.94,1.37,5.03c0.92,1.09,2.08,1.64,3.5,1.64
		c1.4,0,2.58-0.55,3.48-1.63c0.92-1.08,1.37-2.76,1.37-5.05c0-1.88-0.4-3.47-1.21-4.76C164.44,47.44,163.21,46.8,161.6,46.8
		L161.6,46.8z M179.69,34.95v29.39h-5.67V34.95H179.69z M187.38,49.53h-5.62c0.12-2.22,1-4.03,2.62-5.45
		c1.61-1.4,4.08-2.11,7.41-2.11c1.43,0,2.74,0.15,3.91,0.45c1.17,0.29,2.03,0.68,2.6,1.16c0.57,0.47,1.01,1.07,1.32,1.8
		c0.43,0.95,0.64,2.14,0.64,3.56l-0.03,11.1c0,1.29,0.12,2.15,0.33,2.55c0.24,0.43,0.56,0.71,0.99,0.84v0.89h-6.25
		c-0.35-0.83-0.52-1.67-0.53-2.54c-1.16,1.21-2.23,2.04-3.23,2.51c-1,0.45-2.19,0.69-3.56,0.69c-1.43,0-2.67-0.28-3.71-0.83
		c-1.05-0.55-1.84-1.33-2.36-2.38c-0.51-1.03-0.77-2.15-0.77-3.34c0-1.82,0.48-3.34,1.43-4.55c0.95-1.23,2.7-2.03,5.25-2.42
		l4.79-0.72c0.77-0.11,1.31-0.31,1.59-0.59c0.28-0.28,0.43-0.67,0.43-1.16c0-0.79-0.27-1.4-0.79-1.84c-0.52-0.43-1.4-0.65-2.64-0.65
		c-1.28,0-2.18,0.23-2.72,0.65C187.93,47.63,187.57,48.42,187.38,49.53L187.38,49.53z M194.62,53.73c-0.49,0.27-0.97,0.45-1.43,0.61
		c-0.45,0.15-1.07,0.31-1.84,0.47c-1.47,0.28-2.38,0.49-2.75,0.64c-0.61,0.25-1.08,0.6-1.37,1.04c-0.31,0.43-0.47,0.97-0.47,1.61
		c0,0.85,0.27,1.55,0.8,2.1c0.53,0.52,1.23,0.79,2.08,0.79c1.24,0,2.39-0.4,3.43-1.21c1.03-0.81,1.55-2.1,1.55-3.84V53.73z
		 M215.18,49.19c-0.11-0.73-0.27-1.27-0.49-1.61c-0.29-0.45-0.68-0.77-1.16-0.97c-0.63-0.25-1.31-0.39-2.07-0.39
		c-1.29,0-2.2,0.21-2.75,0.63c-0.53,0.4-0.8,0.88-0.8,1.41c0,0.29,0.07,0.55,0.2,0.77c0.13,0.24,0.36,0.45,0.69,0.64
		c0.35,0.2,0.97,0.41,1.9,0.65l3.96,0.97c1.33,0.35,2.16,0.59,2.5,0.69c0.83,0.28,1.51,0.61,2.06,0.99c0.56,0.37,1,0.77,1.32,1.2
		c0.33,0.44,0.59,0.93,0.76,1.49c0.17,0.55,0.27,1.16,0.27,1.83c0,1.17-0.21,2.26-0.67,3.23c-0.44,0.96-1.08,1.76-1.91,2.38
		c-0.84,0.63-1.87,1.08-3.1,1.4c-1.23,0.32-2.67,0.49-4.31,0.49c-1.7,0-3.16-0.19-4.42-0.55c-1.25-0.36-2.27-0.88-3.04-1.56
		c-0.79-0.68-1.36-1.45-1.76-2.28c-0.37-0.84-0.64-1.91-0.81-3.22h5.89c0,0.69,0.11,1.24,0.33,1.66c0.32,0.57,0.81,1,1.47,1.28
		c0.65,0.28,1.49,0.41,2.48,0.41c1.48,0,2.55-0.24,3.23-0.73c0.49-0.37,0.73-0.87,0.73-1.48c0-0.45-0.17-0.87-0.53-1.19
		c-0.37-0.33-1.28-0.67-2.75-1.03c-3.23-0.73-5.31-1.29-6.25-1.67c-1.29-0.53-2.27-1.24-2.91-2.15c-0.64-0.91-0.95-2-0.95-3.31
		c0-1.33,0.35-2.56,1.04-3.7c0.69-1.12,1.74-2,3.11-2.6c1.37-0.61,3.08-0.92,5.11-0.92c1.17,0,2.28,0.12,3.35,0.35
		c1.05,0.24,1.94,0.57,2.64,1.03c0.72,0.45,1.29,0.97,1.76,1.56c0.45,0.6,0.79,1.2,1.01,1.83c0.21,0.6,0.39,1.43,0.51,2.46H215.18z
		 M223.83,46.67h-3.03v-4.06h3.03v-5.86h5.66v5.86H233v4.06h-3.51v11.67c0,0.68,0.05,1.13,0.15,1.35c0.09,0.23,0.27,0.39,0.55,0.49
		c0.28,0.11,0.85,0.16,1.72,0.16c0.31,0,0.67-0.03,1.09-0.07v4.24c-1.17,0.09-2.1,0.13-2.74,0.13c-1.83,0-3.16-0.16-3.98-0.47
		c-0.83-0.31-1.44-0.76-1.86-1.39c-0.4-0.61-0.6-1.47-0.6-2.56V46.67z"/>
	<path class="st4" d="M241.66,29.68c0.99,0,1.96,0.25,2.91,0.77c0.95,0.51,1.68,1.24,2.2,2.18c0.53,0.96,0.8,1.95,0.8,2.98
		c0,1.01-0.27,2-0.79,2.94c-0.52,0.93-1.24,1.67-2.19,2.19c-0.93,0.52-1.91,0.79-2.94,0.79c-1.03,0-2-0.27-2.95-0.79
		c-0.93-0.52-1.67-1.25-2.19-2.19c-0.52-0.93-0.77-1.92-0.77-2.94c0-1.03,0.25-2.02,0.79-2.98c0.53-0.93,1.27-1.67,2.22-2.18
		C239.7,29.93,240.66,29.68,241.66,29.68L241.66,29.68z M241.66,30.67c-0.83,0-1.64,0.21-2.43,0.64c-0.79,0.43-1.4,1.03-1.84,1.83
		c-0.44,0.79-0.67,1.61-0.67,2.47c0,0.85,0.21,1.67,0.65,2.44c0.44,0.79,1.04,1.39,1.83,1.83c0.79,0.44,1.6,0.65,2.46,0.65
		c0.85,0,1.67-0.21,2.46-0.65c0.77-0.44,1.39-1.04,1.83-1.83c0.43-0.77,0.64-1.59,0.64-2.44c0-0.85-0.21-1.68-0.65-2.47
		c-0.44-0.8-1.07-1.4-1.86-1.83C243.29,30.88,242.49,30.67,241.66,30.67L241.66,30.67z M239.06,38.86v-6.35h2.19
		c0.75,0,1.29,0.05,1.63,0.17c0.33,0.12,0.6,0.32,0.8,0.61c0.2,0.29,0.29,0.6,0.29,0.93c0,0.47-0.16,0.87-0.49,1.21
		c-0.33,0.35-0.77,0.53-1.32,0.57c0.21,0.09,0.4,0.21,0.53,0.35c0.25,0.24,0.57,0.67,0.95,1.25l0.77,1.24h-1.25l-0.56-1
		c-0.44-0.79-0.8-1.28-1.08-1.48c-0.19-0.15-0.45-0.21-0.81-0.21h-0.61v2.7H239.06z M240.09,35.29h1.25c0.59,0,1-0.09,1.21-0.27
		c0.21-0.17,0.33-0.41,0.33-0.69c0-0.19-0.05-0.36-0.16-0.51c-0.11-0.15-0.25-0.25-0.44-0.33c-0.19-0.07-0.52-0.11-1.03-0.11h-1.17
		V35.29z"/>
</g>
</svg>
